<svg xmlns="http://www.w3.org/2000/svg" width="1600" height="720" viewBox="0 0 1600 720">
<defs><pattern id="g" width="40" height="40" patternUnits="userSpaceOnUse"><path d="M40 0H0V40" fill="none" stroke="#203247" stroke-width="1"/></pattern><linearGradient id="bg" x2="1" y2="1"><stop stop-color="#0b1523"/><stop offset="1" stop-color="#132a3a"/></linearGradient></defs>
<rect width="1600" height="720" rx="24" fill="url(#bg)"/><rect width="1600" height="720" fill="url(#g)" opacity=".45"/>
<rect x="70" y="64" width="290" height="40" rx="20" fill="#173d48"/><text x="92" y="91" font-family="Arial,sans-serif" font-size="18" font-weight="bold" letter-spacing="2" fill="#6ae5c5">BUILD / MEASURE / ITERATE</text>
<text x="70" y="211" font-family="Arial,sans-serif" font-size="76" font-weight="bold" fill="#f4f8fc">Mechanical</text><text x="70" y="297" font-family="Arial,sans-serif" font-size="76" font-weight="bold" fill="#f4f8fc">Switch Workshop</text>
<text x="74" y="365" font-family="Arial,sans-serif" font-size="26" fill="#b2c8d7">An external robotic finger. A hands-on engineering lab.</text>
<path d="M74 409H743" stroke="#3f586d"/>
<text x="74" y="456" font-family="Arial,sans-serif" font-size="23" fill="#6ae5c5">PRINT</text><text x="74" y="491" font-family="Arial,sans-serif" font-size="19" fill="#b2c8d7">Modular parts</text>
<text x="305" y="456" font-family="Arial,sans-serif" font-size="23" fill="#6ae5c5">ASSEMBLE</text><text x="305" y="491" font-family="Arial,sans-serif" font-size="19" fill="#b2c8d7">Compliant motion</text>
<text x="552" y="456" font-family="Arial,sans-serif" font-size="23" fill="#6ae5c5">EXPLORE</text><text x="552" y="491" font-family="Arial,sans-serif" font-size="19" fill="#b2c8d7">Force and fit</text>
<rect x="74" y="591" width="444" height="52" rx="10" fill="#20364a"/><text x="96" y="625" font-family="Arial,sans-serif" font-size="20" fill="#f4f8fc">v0.1  /  MECHANICAL BENCH PROTOTYPE</text>
<!-- Schematic: deliberate diagram, not a product photograph. -->
<g transform="translate(875 118)">
<rect x="0" y="0" width="470" height="470" rx="28" fill="#152b3e" stroke="#53728a" stroke-width="3"/>
<rect x="28" y="28" width="414" height="414" rx="20" fill="#ecf2f3"/>
<rect x="69" y="31" width="332" height="47" rx="5" fill="#efb950"/><rect x="69" y="392" width="332" height="47" rx="5" fill="#efb950"/>
<rect x="28" y="98" width="38" height="66" rx="4" fill="#efb950"/><rect x="28" y="306" width="38" height="66" rx="4" fill="#efb950"/><rect x="404" y="98" width="38" height="66" rx="4" fill="#efb950"/><rect x="404" y="306" width="38" height="66" rx="4" fill="#efb950"/>
<rect x="103" y="85" width="264" height="300" rx="12" fill="#183c52" stroke="#6ae5c5" stroke-width="3"/>
<path d="M123 108H347M123 362H347" stroke="#6ae5c5" stroke-width="8" stroke-linecap="round"/>
<circle cx="235" cy="235" r="94" fill="#264e61" stroke="#8cb0c0" stroke-width="3"/>
<path d="M264 174A68 68 0 0 1 301 218M264 296A68 68 0 0 0 301 252" fill="none" stroke="#efb950" stroke-width="17" stroke-linecap="round"/>
<circle cx="235" cy="235" r="19" fill="#102c3e" stroke="#6ae5c5" stroke-width="4"/>
<circle cx="235" cy="180" r="11" fill="#f4f8fc"/><circle cx="235" cy="290" r="11" fill="#f4f8fc"/>
<path d="M155 235H175M295 235H315" stroke="#6ae5c5" stroke-width="3"/>
<path d="M492 125H561V345H492Z" fill="#1f4b4d" stroke="#6ae5c5" stroke-width="2"/><rect x="508" y="159" width="36" height="47" rx="4" fill="#0b1523"/>
<path d="M470 190H492M470 280H492" stroke="#53728a" stroke-width="12"/>
</g>
<text x="886" y="640" font-family="Arial,sans-serif" font-size="18" fill="#b2c8d7">TAPE-MOUNTED  •  TWO-LOBE CAM  •  SPRING COMPLIANCE</text>
<text x="886" y="674" font-family="Arial,sans-serif" font-size="14" fill="#7798ad">MECHANISM SCHEMATIC / SEE FUSION MODEL FOR AS-BUILT GEOMETRY</text>
</svg>
